# xmcd
#
# Track frame offsets:
#	150
#	25242
#	41939
#	82975
#	98032
#	119349
#	143951
#	181806
#	218526
#	243454
#
# Disc length: 3563 seconds
#
# Revision: 2
# Processed by: cddbd v1.5.2PL0 Copyright (c) Steve Scherf et al.
# Submitted via: EZCDAudioConverter 1.0.8.1
#
DISCID=820de90a
DTITLE=粤剧戏宝精华 - 尹光.胡美仪
DYEAR=2008
DGENRE=Country
TTITLE0=唐伯虎点秋香
TTITLE1=游龙戏凤
TTITLE2=凤阁恩仇未了情
TTITLE3=玉女香车
TTITLE4=春灯羽扇恨
TTITLE5=宫主刁蛮驸马娇
TTITLE6=打金枝
TTITLE7=万恶淫为首之玉笙怨
TTITLE8=狄青闯三关
TTITLE9=沙三少情挑银姐
EXTD=
EXTT0=
EXTT1=
EXTT2=
EXTT3=
EXTT4=
EXTT5=
EXTT6=
EXTT7=
EXTT8=
EXTT9=
PLAYORDER=
